<svg width="30" height="33" viewBox="0 0 30 33" fill="none" xmlns="http://www.w3.org/2000/svg">
<g clip-path="url(#clip0_0_85)">
<path d="M11.5385 2.30769C10.9014 2.30769 10.3576 2.53305 9.90685 2.98377C9.45613 3.4345 9.23077 3.97837 9.23077 4.61538V20.7692L6.50841 17.1274C6.01562 16.4784 5.3726 16.1538 4.57933 16.1538C3.95433 16.1538 3.41947 16.3822 2.97476 16.8389C2.53005 17.2957 2.30769 17.8365 2.30769 18.4615C2.30769 18.9784 2.46394 19.4411 2.77644 19.8498L9.69952 29.0805C10.1562 29.6935 10.7692 30 11.5385 30H24.4832C24.7476 30 24.985 29.9189 25.1953 29.7566C25.4056 29.5944 25.5409 29.387 25.601 29.1346L27.2596 22.5C27.5481 21.3462 27.6923 20.1803 27.6923 19.0024V15.0901C27.6923 14.5974 27.524 14.1707 27.1875 13.8101C26.851 13.4495 26.4423 13.2692 25.9615 13.2692C25.4808 13.2692 25.0721 13.4375 24.7356 13.774C24.399 14.1106 24.2308 14.5192 24.2308 15H23.6538V13.9002C23.6538 13.3233 23.4615 12.8335 23.0769 12.4309C22.6923 12.0282 22.2115 11.8269 21.6346 11.8269C21.0817 11.8269 20.607 12.0252 20.2103 12.4219C19.8137 12.8185 19.6154 13.2933 19.6154 13.8462V15H19.0385V13.3774C19.0385 12.7163 18.8161 12.1484 18.3714 11.6737C17.9267 11.1989 17.3798 10.9615 16.7308 10.9615C16.0938 10.9615 15.5499 11.1869 15.0992 11.6376C14.6484 12.0883 14.4231 12.6322 14.4231 13.2692V15H13.8462V4.72356C13.8462 4.0625 13.6238 3.49459 13.1791 3.01983C12.7344 2.54507 12.1875 2.30769 11.5385 2.30769ZM11.5385 0C12.8245 0 13.9153 0.465745 14.8107 1.39724C15.7061 2.32873 16.1538 3.4375 16.1538 4.72356V8.6899C16.4183 8.66586 16.6106 8.65385 16.7308 8.65385C17.9207 8.65385 18.9603 9.06851 19.8498 9.89784C20.4147 9.64543 21.0096 9.51923 21.6346 9.51923C22.9928 9.51923 24.0986 10.0421 24.9519 11.0877C25.2764 11.0036 25.613 10.9615 25.9615 10.9615C27.0913 10.9615 28.0469 11.3672 28.8281 12.1785C29.6094 12.9898 30 13.9603 30 15.0901V19.0024C30 20.3966 29.8317 21.7488 29.4952 23.0589L27.8365 29.6935C27.6442 30.4627 27.2356 31.0907 26.6106 31.5775C25.9856 32.0643 25.2764 32.3077 24.4832 32.3077H11.5385C10.8173 32.3077 10.1292 32.1424 9.47416 31.8119C8.81911 31.4814 8.27524 31.0337 7.84255 30.4688L0.919471 21.238C0.30649 20.4207 0 19.4952 0 18.4615C0 17.1995 0.447716 16.1148 1.34315 15.2073C2.23858 14.2999 3.31731 13.8462 4.57933 13.8462C5.43269 13.8462 6.21394 14.0565 6.92308 14.4772V4.61538C6.92308 3.34135 7.3738 2.25361 8.27524 1.35216C9.17668 0.450721 10.2644 0 11.5385 0ZM13.8462 25.3846V18.4615H13.2692V25.3846H13.8462ZM18.4615 25.3846V18.4615H17.8846V25.3846H18.4615ZM23.0769 25.3846V18.4615H22.5V25.3846H23.0769Z" fill="black"/>
</g>
<defs>
<clipPath id="clip0_0_85">
<rect width="30" height="32.3077" fill="white"/>
</clipPath>
</defs>
</svg>
