<svg width="74" height="26" viewBox="0 0 74 26" fill="none" xmlns="http://www.w3.org/2000/svg">
<path d="M5.56365 20.6175C4.43535 20.6175 3.45861 20.4051 2.63343 19.9804C1.82509 19.5556 1.21042 19.0035 0.789412 18.3239C0.368402 17.6273 0.157898 16.8968 0.157898 16.1322V15.9793H3.56807V16.1322C3.56807 16.591 3.74489 16.9987 4.09854 17.3555C4.45219 17.7123 4.96582 17.8906 5.63944 17.8906C6.19517 17.8906 6.64144 17.7632 6.97824 17.5084C7.33189 17.2366 7.50872 16.8713 7.50872 16.4126C7.50872 16.0048 7.35715 15.682 7.05403 15.4442C6.7509 15.2063 6.37199 15.0534 5.9173 14.9854L4.40167 14.6796C3.40809 14.4928 2.50713 14.0935 1.69879 13.4819C0.890454 12.8703 0.486285 11.9443 0.486285 10.7041C0.486285 9.42989 0.949395 8.43601 1.87562 7.72245C2.80183 6.9919 3.98908 6.62663 5.43735 6.62663C6.49829 6.62663 7.41609 6.82201 8.19075 7.21277C8.96541 7.60352 9.55482 8.1217 9.95899 8.7673C10.3632 9.39591 10.5652 10.0755 10.5652 10.806V10.908H7.15507V10.8315C7.15507 10.4238 7.0035 10.05 6.70038 9.71022C6.39725 9.35344 5.93414 9.17505 5.31105 9.17505C4.789 9.17505 4.36799 9.31096 4.04802 9.5828C3.72805 9.85463 3.56807 10.2114 3.56807 10.6531C3.56807 11.0609 3.72805 11.3837 4.04802 11.6215C4.38483 11.8594 4.79742 12.0208 5.28579 12.1057L6.95298 12.437C8.03077 12.6749 8.94015 13.1081 9.68112 13.7367C10.4221 14.3483 10.7926 15.2233 10.7926 16.3616C10.7926 17.2111 10.5652 17.9586 10.1106 18.6042C9.65586 19.2498 9.02435 19.751 8.21601 20.1078C7.42451 20.4476 6.5404 20.6175 5.56365 20.6175Z" fill="white"/>
<path d="M19.991 20.6175C18.8627 20.6175 17.9786 20.3541 17.3386 19.8274C16.6987 19.3008 16.2272 18.7231 15.924 18.0945H15.7219V25.7143H12.2107V6.95792H15.7219V9.04763H15.924C16.1935 8.46999 16.6482 7.92632 17.2881 7.41664C17.928 6.88997 18.8206 6.62663 19.9657 6.62663C21.6666 6.62663 22.9717 7.26373 23.8811 8.53794C24.8073 9.81215 25.2704 11.5196 25.2704 13.6603C25.2704 15.75 24.8073 17.4319 23.8811 18.7061C22.9717 19.9803 21.675 20.6175 19.991 20.6175ZM18.7279 17.8142C19.7384 17.8142 20.4878 17.4064 20.9761 16.591C21.4813 15.7755 21.734 14.7901 21.734 13.6348C21.734 12.5135 21.4813 11.5536 20.9761 10.7551C20.4878 9.93958 19.7384 9.53183 18.7279 9.53183C17.7344 9.53183 16.985 9.93958 16.4798 10.7551C15.9745 11.5706 15.7219 12.539 15.7219 13.6603C15.7219 14.7986 15.9745 15.7755 16.4798 16.591C16.985 17.4064 17.7344 17.8142 18.7279 17.8142Z" fill="white"/>
<path d="M32.9526 20.6175C31.5548 20.6175 30.376 20.3032 29.4161 19.6745C28.4731 19.0289 27.7658 18.1795 27.2942 17.1261C26.8227 16.0728 26.5869 14.9175 26.5869 13.6603C26.5869 12.403 26.8143 11.2478 27.269 10.1944C27.7405 9.12408 28.4562 8.26611 29.4161 7.62051C30.376 6.97491 31.5548 6.65211 32.9526 6.65211C34.3503 6.65211 35.5292 6.97491 36.4891 7.62051C37.449 8.24912 38.1647 9.0901 38.6362 10.1434C39.1077 11.1968 39.3435 12.3521 39.3435 13.6093C39.3435 14.8665 39.1077 16.0303 38.6362 17.1006C38.1647 18.154 37.449 19.0035 36.4891 19.6491C35.5292 20.2947 34.3503 20.6175 32.9526 20.6175ZM32.9526 17.7632C33.9293 17.7632 34.6619 17.3725 35.1503 16.591C35.6555 15.7924 35.9081 14.7986 35.9081 13.6093C35.9081 12.42 35.6555 11.4431 35.1503 10.6786C34.6619 9.8971 33.9293 9.50634 32.9526 9.50634C31.9759 9.50634 31.2433 9.8971 30.7549 10.6786C30.2666 11.4431 30.0224 12.42 30.0224 13.6093C30.0224 14.7986 30.2666 15.7924 30.7549 16.591C31.2601 17.3725 31.9927 17.7632 32.9526 17.7632Z" fill="white"/>
<path d="M41.0338 6.95792H44.4945V9.0986H44.6713C44.8902 8.50396 45.2944 8.00278 45.8838 7.59503C46.4732 7.17029 47.2311 6.95792 48.1573 6.95792C48.5109 6.95792 48.814 6.9919 49.0667 7.05986L48.9151 10.2964C48.4941 10.1774 48.0478 10.118 47.5763 10.118C46.5322 10.118 45.7575 10.3983 45.2523 10.9589C44.7471 11.5026 44.4945 12.4115 44.4945 13.6858V20.4136H41.0338V6.95792Z" fill="white"/>
<path d="M54.8189 9.71022V15.699C54.8189 16.2936 54.8442 16.7354 54.8947 17.0242C54.9621 17.313 55.1305 17.5424 55.3999 17.7123C55.6694 17.8822 56.1072 17.9671 56.7135 17.9671C57.0671 17.9671 57.4292 17.9331 57.7997 17.8652V20.3116C57.6144 20.3456 57.2776 20.3881 56.7893 20.4391C56.3177 20.49 55.8546 20.5155 55.3999 20.5155C54.1706 20.5155 53.2528 20.3371 52.6465 19.9804C52.0571 19.6066 51.6866 19.1479 51.5351 18.6042C51.3835 18.0436 51.3077 17.33 51.3077 16.4635V9.71022H49.0848V6.95792H51.333V2.57464H54.8189V6.95792H57.7997V9.71022H54.8189Z" fill="white"/>
<path d="M59.9695 6.95792H63.4555V20.4136H59.9695V6.95792ZM61.6873 4.63886C61.1315 4.63886 60.6684 4.45198 60.2979 4.07821C59.9274 3.68745 59.7422 3.22024 59.7422 2.67658C59.7422 2.11593 59.9274 1.64872 60.2979 1.27495C60.6684 0.901179 61.1315 0.714294 61.6873 0.714294C62.243 0.714294 62.7061 0.909673 63.0766 1.30043C63.4471 1.6742 63.6323 2.13292 63.6323 2.67658C63.6323 3.22024 63.4471 3.68745 63.0766 4.07821C62.7061 4.45198 62.243 4.63886 61.6873 4.63886Z" fill="white"/>
<path d="M70.8614 9.71022V15.699C70.8614 16.2936 70.8866 16.7354 70.9371 17.0242C71.0045 17.313 71.1729 17.5424 71.4424 17.7123C71.7118 17.8822 72.1497 17.9671 72.7559 17.9671C73.1096 17.9671 73.4716 17.9331 73.8421 17.8652V20.3116C73.6569 20.3456 73.3201 20.3881 72.8317 20.4391C72.3602 20.49 71.897 20.5155 71.4424 20.5155C70.213 20.5155 69.2952 20.3371 68.689 19.9804C68.0995 19.6066 67.7291 19.1479 67.5775 18.6042C67.4259 18.0436 67.3502 17.33 67.3502 16.4635V9.71022H65.1272V6.95792H67.3754V2.57464H70.8614V6.95792H73.8421V9.71022H70.8614Z" fill="white"/>
</svg>
