<svg width="26" height="26" viewBox="0 0 26 26" fill="none" xmlns="http://www.w3.org/2000/svg">
<path fill-rule="evenodd" clip-rule="evenodd" d="M24.9775 15.3421C25.0961 14.6505 25.1579 13.9396 25.1579 13.2143C25.1579 6.31074 19.5615 0.714294 12.6579 0.714294C8.47185 0.714294 4.7664 2.77195 2.49781 5.931C3.76552 5.75566 5.01897 5.83693 6.26113 6.15238C9.39452 6.94809 12.0596 9.18119 14.2202 11L14.3922 11.1449C16.6798 13.0713 18.5379 14.636 20.5308 15.3771C21.8223 15.8574 23.2368 16.0099 24.9775 15.3421ZM22.6009 20.7908C20.3171 23.7834 16.713 25.7143 12.6579 25.7143C5.75434 25.7143 0.157898 20.1179 0.157898 13.2143C0.157898 12.8571 0.172878 12.5035 0.202245 12.1539C2.26575 10.7423 3.78813 10.6831 5.03046 10.9986C6.86155 11.4636 8.66432 12.8587 11 14.8251C11.1387 14.9418 11.2794 15.0607 11.4222 15.1814L11.4222 15.1814C13.4727 16.9143 15.9504 19.0083 18.788 20.0636C20.0143 20.5196 21.285 20.7783 22.6009 20.7908Z" fill="#3CDDF3"/>
</svg>
